<svg width="40" height="40" viewBox="0 0 40 40" fill="none" xmlns="http://www.w3.org/2000/svg">
<path d="M31.7711 26.803H8.22878C7.1516 26.803 6.27527 26.0416 6.27527 25.1057V19.1516C6.27527 18.2158 7.1516 17.4544 8.22878 17.4544H31.7711C32.8483 17.4544 33.7246 18.2158 33.7246 19.1516V25.1057C33.7246 26.0416 32.8483 26.803 31.7711 26.803ZM7.83777 25.0944C7.86527 25.1416 8.0041 25.2405 8.22878 25.2405H31.7711C31.9958 25.2405 32.1346 25.1416 32.1621 25.0944V19.163C32.1346 19.1158 31.9959 19.0169 31.7711 19.0169H8.22878C8.00402 19.0169 7.86527 19.1158 7.83777 19.163V25.0944Z" fill="#646464"/>
<path d="M29.5732 19.0169H10.4268C9.99535 19.0169 9.64551 18.6671 9.64551 18.2356V11.2142C9.64551 10.7827 9.99535 10.433 10.4268 10.433H29.5732C30.0046 10.433 30.3544 10.7827 30.3544 11.2142V18.2356C30.3544 18.6671 30.0046 19.0169 29.5732 19.0169ZM11.208 17.4544H28.7919V11.9955H11.208V17.4544Z" fill="#646464"/>
<path d="M7.05652 29.567C6.62511 29.567 6.27527 29.2173 6.27527 28.7858V25.1058C6.27527 24.6743 6.62511 24.3245 7.05652 24.3245C7.48792 24.3245 7.83777 24.6743 7.83777 25.1058V28.7858C7.83777 29.2172 7.488 29.567 7.05652 29.567Z" fill="#646464"/>
<path d="M32.9434 29.567C32.512 29.567 32.1621 29.2173 32.1621 28.7858V25.1058C32.1621 24.6743 32.512 24.3245 32.9434 24.3245C33.3748 24.3245 33.7246 24.6743 33.7246 25.1058V28.7858C33.7246 29.2172 33.3748 29.567 32.9434 29.567Z" fill="#646464"/>
<path d="M17.6392 19.0169H13.6016C13.1702 19.0169 12.8203 18.6671 12.8203 18.2356V15.1097C12.8203 14.6782 13.1702 14.3284 13.6016 14.3284H17.6393C18.0707 14.3284 18.4205 14.6782 18.4205 15.1097V18.2356C18.4205 18.6671 18.0707 19.0169 17.6392 19.0169ZM14.3828 17.4544H16.858V15.8909H14.3828V17.4544Z" fill="#646464"/>
<path d="M26.3658 19.0169H22.3281C21.8967 19.0169 21.5469 18.6671 21.5469 18.2356V15.1097C21.5469 14.6782 21.8967 14.3284 22.3281 14.3284H26.3658C26.7972 14.3284 27.147 14.6782 27.147 15.1097V18.2356C27.147 18.6671 26.7973 19.0169 26.3658 19.0169ZM23.1095 17.4544H25.5846V15.8909H23.1095V17.4544Z" fill="#646464"/>
</svg>
