<svg width="36" height="36" viewBox="0 0 36 36" fill="none" xmlns="http://www.w3.org/2000/svg">
<g clip-path="url(#clip0_1206_762)">
<path d="M17.9999 12C16.0117 12 14.3999 13.6118 14.3999 15.6C14.3999 17.5882 16.0117 19.2 17.9999 19.2C19.9881 19.2 21.5999 17.5882 21.5999 15.6C21.5999 13.6118 19.9881 12 17.9999 12Z" fill="#F77844"/>
<path fill-rule="evenodd" clip-rule="evenodd" d="M21.6 4.79971L19.2 4.79974V0H16.8V4.79976H14.3998C6.447 4.79983 2.20302e-05 11.2469 0 19.1996C-2.20295e-05 27.1524 6.44705 33.5995 14.3999 33.5995H21.6001C21.9134 33.5995 22.2246 33.5897 22.5332 33.5698L32.1091 35.9638C32.5181 36.066 32.9506 35.9462 33.2486 35.6482C33.5467 35.3501 33.6665 34.9176 33.5642 34.5086L32.1794 28.969C34.5499 26.4029 36 22.9697 36 19.1996C36 11.2467 29.5529 4.79964 21.6 4.79971ZM12 15.6C12 12.2863 14.6863 9.6 18 9.6C21.3137 9.6 24 12.2863 24 15.6C24 18.9137 21.3137 21.6 18 21.6C14.6863 21.6 12 18.9137 12 15.6ZM18 28.8C15.4471 28.8 13.0981 27.9127 11.2494 26.4307L12.7505 24.5582C14.1888 25.7112 16.0123 26.4 18 26.4C19.9876 26.4 21.8111 25.7112 23.2494 24.5582L24.7505 26.4307C22.9017 27.9127 20.5528 28.8 18 28.8Z" fill="#F77844"/>
</g>
<defs>
<clipPath id="clip0_1206_762">
<rect width="36" height="36" fill="white"/>
</clipPath>
</defs>
</svg>
