<svg width="24" height="24" viewBox="0 0 36 36" fill="none" xmlns="http://www.w3.org/2000/svg">
<path fill-rule="evenodd" clip-rule="evenodd" d="M18 16.395L26.5785 7.815C26.7975 7.596 27.087 7.4865 27.375 7.4865C27.981 7.4865 28.5 7.9725 28.5 8.61C28.5 8.8995 28.3905 9.1875 28.1715 9.408L19.5915 17.9865L28.17 26.565C28.3905 26.7855 28.5 27.0735 28.5 27.3615C28.5 28.002 27.9765 28.4865 27.375 28.4865C27.087 28.4865 26.7975 28.377 26.5785 28.158L18 19.5795L9.4215 28.158C9.2025 28.377 8.913 28.4865 8.625 28.4865C8.0235 28.4865 7.5 28.002 7.5 27.3615C7.5 27.0735 7.6095 26.7855 7.83 26.565L16.4085 17.9865L7.8285 9.408C7.6095 9.1875 7.5 8.8995 7.5 8.61C7.5 7.9725 8.019 7.4865 8.625 7.4865C8.913 7.4865 9.2025 7.596 9.4215 7.815L18 16.395Z" fill="#646464"/>
</svg>
