<svg width="32" height="32" viewBox="0 0 20 19" fill="none" xmlns="http://www.w3.org/2000/svg">
<path d="M9.322 0.423C9.448 0.164 9.712 0 10 0C10.289 0 10.552 0.164 10.678 0.423C11.3287 1.7578 12.2927 3.73708 12.861 4.90398C13.1532 5.50406 13.7235 5.91738 14.3847 6.00833C15.6759 6.18594 17.871 6.48797 19.35 6.692C19.753 6.747 20 7.088 20 7.439C20 7.629 19.928 7.822 19.769 7.975C18.6942 9.00171 17.1016 10.5253 16.1615 11.4248C15.6772 11.8883 15.458 12.5613 15.5766 13.2212C15.8062 14.4988 16.1945 16.6604 16.456 18.118C16.539 18.58 16.181 19 15.714 19C15.592 19 15.47 18.971 15.359 18.911C14.0415 18.2094 12.0862 17.1694 10.9376 16.5586C10.3506 16.2464 9.6494 16.2464 9.06238 16.5586C7.91375 17.1694 5.9585 18.2094 4.641 18.911C4.53 18.971 4.407 19 4.285 19C3.82 19 3.46 18.579 3.544 18.118C3.80615 16.6605 4.19466 14.4991 4.42432 13.2214C4.54293 12.5614 4.32371 11.8883 3.8392 11.4248C2.89886 10.5252 1.30608 9.00169 0.232 7.975C0.0720001 7.822 0 7.629 0 7.44C0 7.088 0.249 6.746 0.651 6.692C2.13007 6.48797 4.32472 6.18593 5.61565 6.00832C6.27669 5.91737 6.84679 5.50424 7.13904 4.90438C7.70751 3.73753 8.67189 1.75795 9.322 0.423Z" fill="#EAEAEA"/>
</svg>
