<svg width="28" height="28" viewBox="0 0 28 28" fill="none" xmlns="http://www.w3.org/2000/svg">
<rect width="28" height="28" rx="14" fill="#F9F9F9"/>
<path d="M13.322 4.923C13.448 4.664 13.712 4.5 14 4.5C14.289 4.5 14.552 4.664 14.678 4.923C15.3287 6.2578 16.2927 8.23708 16.861 9.40398C17.1532 10.0041 17.7235 10.4174 18.3847 10.5083C19.6759 10.6859 21.871 10.988 23.35 11.192C23.753 11.247 24 11.588 24 11.939C24 12.129 23.928 12.322 23.769 12.475C22.6942 13.5017 21.1016 15.0253 20.1615 15.9248C19.6772 16.3883 19.458 17.0613 19.5766 17.7212C19.8062 18.9988 20.1945 21.1604 20.456 22.618C20.539 23.08 20.181 23.5 19.714 23.5C19.592 23.5 19.47 23.471 19.359 23.411C18.0415 22.7094 16.0862 21.6694 14.9376 21.0586C14.3506 20.7464 13.6494 20.7464 13.0624 21.0586C11.9137 21.6694 9.9585 22.7094 8.641 23.411C8.53 23.471 8.407 23.5 8.285 23.5C7.82 23.5 7.46 23.079 7.544 22.618C7.80615 21.1605 8.19466 18.9991 8.42432 17.7214C8.54293 17.0614 8.32371 16.3883 7.8392 15.9248C6.89886 15.0252 5.30608 13.5017 4.232 12.475C4.072 12.322 4 12.129 4 11.94C4 11.588 4.249 11.246 4.651 11.192C6.13007 10.988 8.32472 10.6859 9.61565 10.5083C10.2767 10.4174 10.8468 10.0042 11.139 9.40438C11.7075 8.23753 12.6719 6.25795 13.322 4.923Z" fill="#F77844"/>
</svg>
