<svg width="40" height="41" viewBox="0 0 40 41" fill="none" xmlns="http://www.w3.org/2000/svg">
<path d="M5.6063 3.69844C4.29073 3.69844 3.2063 4.78198 3.2063 6.09844V32.5016C3.2063 33.8175 4.29032 34.9016 5.6063 34.9016H6.40005V36.5C6.40007 36.7122 6.48436 36.9156 6.63439 37.0657C6.78441 37.2157 6.98788 37.3 7.20005 37.3H10.4C10.6122 37.3 10.8157 37.2157 10.9657 37.0657C11.1157 36.9156 11.2 36.7122 11.2 36.5V34.9016L17.6 34.9C17.6 36.216 18.6841 37.3 20 37.3H34.4C35.716 37.3 36.8 36.216 36.8 34.9V18.9C36.8 17.584 35.716 16.5 34.4 16.5H26.4V6.1C26.4 4.78395 25.3161 3.7 24 3.7L5.6063 3.69844ZM5.6063 5.29844L24 5.3C24.4504 5.3 24.8 5.64965 24.8 6.1V12.5H4.8063V6.09844C4.8063 5.6469 5.15547 5.29844 5.6063 5.29844ZM7.98755 6.88907C7.77565 6.89238 7.57372 6.97963 7.42608 7.13166C7.27844 7.2837 7.19715 7.4881 7.20005 7.7V10.1C7.19855 10.206 7.21813 10.3113 7.25767 10.4096C7.2972 10.508 7.35589 10.5975 7.43032 10.673C7.50476 10.7485 7.59345 10.8085 7.69126 10.8494C7.78907 10.8903 7.89403 10.9114 8.00005 10.9114C8.10607 10.9114 8.21103 10.8903 8.30884 10.8494C8.40664 10.8085 8.49534 10.7485 8.56978 10.673C8.64421 10.5975 8.7029 10.508 8.74243 10.4096C8.78196 10.3113 8.80155 10.206 8.80005 10.1V7.7C8.80151 7.59297 8.78149 7.48673 8.74116 7.38758C8.70082 7.28843 8.641 7.19838 8.56524 7.12276C8.48948 7.04714 8.39931 6.9875 8.30008 6.94736C8.20085 6.90722 8.09458 6.88739 7.98755 6.88907ZM4.8063 14.1H24.8V16.5H20C18.6841 16.5 17.6 17.584 17.6 18.9V33.3L10.4563 33.3016C10.449 33.3015 10.4417 33.3015 10.4344 33.3016C10.423 33.3008 10.4115 33.3003 10.4 33.3H7.20005C7.19223 33.3004 7.18442 33.3009 7.17661 33.3016H5.6063C5.15427 33.3016 4.8063 32.9536 4.8063 32.5016V14.1ZM7.98755 15.6891C7.77565 15.6924 7.57372 15.7796 7.42608 15.9317C7.27844 16.0837 7.19715 16.2881 7.20005 16.5V19.7C7.19855 19.806 7.21813 19.9113 7.25767 20.0096C7.2972 20.108 7.35589 20.1975 7.43032 20.273C7.50476 20.3485 7.59345 20.4085 7.69126 20.4494C7.78907 20.4903 7.89403 20.5114 8.00005 20.5114C8.10607 20.5114 8.21103 20.4903 8.30884 20.4494C8.40664 20.4085 8.49534 20.3485 8.56978 20.273C8.64421 20.1975 8.7029 20.108 8.74243 20.0096C8.78196 19.9113 8.80155 19.806 8.80005 19.7V16.5C8.80151 16.393 8.78149 16.2867 8.74116 16.1876C8.70082 16.0884 8.641 15.9984 8.56524 15.9228C8.48948 15.8471 8.39931 15.7875 8.30008 15.7474C8.20085 15.7072 8.09458 15.6874 7.98755 15.6891ZM20 18.1H34.4C34.8521 18.1 35.2 18.448 35.2 18.9V34.9C35.2 35.352 34.8521 35.7 34.4 35.7H20C19.548 35.7 19.2 35.352 19.2 34.9V18.9C19.2 18.448 19.548 18.1 20 18.1ZM29.6 19.7C29.3879 19.7 29.1844 19.7843 29.0344 19.9343C28.8843 20.0843 28.8 20.2878 28.8 20.5C28.8 20.7122 28.8843 20.9157 29.0344 21.0657C29.1844 21.2157 29.3879 21.3 29.6 21.3C29.8122 21.3 30.0157 21.2157 30.1657 21.0657C30.3158 20.9157 30.4 20.7122 30.4 20.5C30.4 20.2878 30.3158 20.0843 30.1657 19.9343C30.0157 19.7843 29.8122 19.7 29.6 19.7ZM32.8 19.7C32.5879 19.7 32.3844 19.7843 32.2344 19.9343C32.0843 20.0843 32 20.2878 32 20.5C32 20.7122 32.0843 20.9157 32.2344 21.0657C32.3844 21.2157 32.5879 21.3 32.8 21.3C33.0122 21.3 33.2157 21.2157 33.3657 21.0657C33.5158 20.9157 33.6 20.7122 33.6 20.5C33.6 20.2878 33.5158 20.0843 33.3657 19.9343C33.2157 19.7843 33.0122 19.7 32.8 19.7ZM27.2 22.9C25.6667 22.9 24.4149 23.5038 23.6016 24.4188C22.7883 25.3337 22.4 26.5222 22.4 27.7C22.4 28.8778 22.7883 30.0663 23.6016 30.9813C24.4149 31.8962 25.6667 32.5 27.2 32.5C28.7334 32.5 29.9852 31.8962 30.7985 30.9813C31.6118 30.0663 32 28.8778 32 27.7C32 26.5222 31.6118 25.3337 30.7985 24.4188C29.9852 23.5038 28.7334 22.9 27.2 22.9ZM27.2 24.5C28.3334 24.5 29.0816 24.8962 29.6016 25.4813C30.1217 26.0663 30.4 26.8778 30.4 27.7C30.4 28.5222 30.1217 29.3337 29.6016 29.9188C29.0816 30.5038 28.3334 30.9 27.2 30.9C26.0667 30.9 25.3185 30.5038 24.7985 29.9188C24.2784 29.3337 24 28.5222 24 27.7C24 26.8778 24.2784 26.0663 24.7985 25.4813C25.3185 24.8962 26.0667 24.5 27.2 24.5ZM8.00005 34.9016H9.60005V35.7H8.00005V34.9016Z" fill="#646464"/>
</svg>
