<svg width="22" height="22" viewBox="0 0 22 22" fill="none" xmlns="http://www.w3.org/2000/svg">
<path d="M21.5 1.66667C21.5 1.109 21.0578 0.5 20.3333 0.5H1.66667C0.943333 0.5 0.5 1.1055 0.5 1.66667V20.3333C0.5 21.0578 1.10667 21.5 1.66667 21.5H20.3333C20.891 21.5 21.5 21.0578 21.5 20.3333V1.66667ZM2.25 2.25H19.75V19.75H2.25V2.25ZM16.8333 14.7917C16.8333 14.3087 16.4413 13.9167 15.9583 13.9167H6.04167C5.55867 13.9167 5.16667 14.3087 5.16667 14.7917C5.16667 15.2747 5.55867 15.6667 6.04167 15.6667H15.9583C16.4413 15.6667 16.8333 15.2747 16.8333 14.7917ZM16.8333 11.0023C16.8333 10.5193 16.4413 10.1273 15.9583 10.1273H6.04167C5.55867 10.1273 5.16667 10.5193 5.16667 11.0023C5.16667 11.4853 5.55867 11.8773 6.04167 11.8773H15.9583C16.4413 11.8773 16.8333 11.4853 16.8333 11.0023ZM16.8333 7.20833C16.8333 6.72533 16.4413 6.33333 15.9583 6.33333H6.04167C5.55867 6.33333 5.16667 6.72533 5.16667 7.20833C5.16667 7.69133 5.55867 8.08333 6.04167 8.08333H15.9583C16.4413 8.08333 16.8333 7.69133 16.8333 7.20833Z" fill="white"/>
</svg>
