<svg width="24" height="24" viewBox="0 0 24 24" fill="none" xmlns="http://www.w3.org/2000/svg">
<g clip-path="url(#clip0_248_1406)">
<path d="M24 11H21.949C21.48 6.275 17.725 2.52 13 2.05V0H11V2.05C6.275 2.52 2.52 6.275 2.051 11H0V13H2.051C2.52 17.725 6.275 21.48 11 21.95V24H13V21.95C17.725 21.481 21.48 17.725 21.949 13H24V11ZM13 19.931V16H11V19.931C7.389 19.477 4.522 16.611 4.069 13H8V11H4.069C4.522 7.389 7.389 4.523 11 4.069V8H13V4.069C16.611 4.523 19.478 7.388 19.931 11H16V13H19.931C19.478 16.611 16.611 19.477 13 19.931ZM14 12C14 13.104 13.104 14 12 14C10.896 14 10 13.104 10 12C10 10.896 10.896 10 12 10C13.104 10 14 10.896 14 12Z" fill="#646464"/>
</g>
<defs>
<clipPath id="clip0_248_1406">
<rect width="24" height="24" fill="white"/>
</clipPath>
</defs>
</svg>
