<svg width="40" height="40" viewBox="0 0 40 40" fill="none" xmlns="http://www.w3.org/2000/svg">
<path d="M10 17.5C8.61928 17.5 7.5 18.6193 7.5 20C7.5 21.3807 8.61928 22.5 10 22.5C11.3807 22.5 12.5 21.3807 12.5 20C12.5 18.6193 11.3807 17.5 10 17.5Z" fill="#646464"/>
<path d="M17.5 20C17.5 18.6193 18.6193 17.5 20 17.5C21.3807 17.5 22.5 18.6193 22.5 20C22.5 21.3807 21.3807 22.5 20 22.5C18.6193 22.5 17.5 21.3807 17.5 20Z" fill="#646464"/>
<path d="M27.5 20C27.5 18.6193 28.6193 17.5 30 17.5C31.3807 17.5 32.5 18.6193 32.5 20C32.5 21.3807 31.3807 22.5 30 22.5C28.6193 22.5 27.5 21.3807 27.5 20Z" fill="#646464"/>
</svg>
