<svg width="28" height="35" viewBox="0 0 28 35" fill="none" xmlns="http://www.w3.org/2000/svg">
<g filter="url(#filter0_d_1021_503)">
<path d="M4.0523 14.9545C4.47191 20.0808 9.86505 27.1342 12.5158 30.3191C13.2755 31.2319 14.6466 31.2201 15.3938 30.2971C17.9807 27.1018 23.2374 20.0691 23.8812 14.9545C24.4632 10.3307 22.8841 7.90188 19.6454 5.54152C16.3227 3.11991 11.6419 3.17949 8.36737 5.66585C5.30933 7.98779 3.68046 10.4119 4.0523 14.9545Z" fill="#F77844"/>
<path d="M4.0523 14.9545C4.47191 20.0808 9.86505 27.1342 12.5158 30.3191C13.2755 31.2319 14.6466 31.2201 15.3938 30.2971C17.9807 27.1018 23.2374 20.0691 23.8812 14.9545C24.4632 10.3307 22.8841 7.90188 19.6454 5.54152C16.3227 3.11991 11.6419 3.17949 8.36737 5.66585C5.30933 7.98779 3.68046 10.4119 4.0523 14.9545Z" stroke="white"/>
</g>
<path d="M9.87417 12.6141L13.1232 9.48594C13.5104 9.11312 14.1231 9.11312 14.5104 9.48594L17.7594 12.6141C17.9552 12.8026 18.0658 13.0627 18.0658 13.3345V19.4091C18.0658 19.9614 17.6181 20.4091 17.0658 20.4091H10.5677C10.0155 20.4091 9.56775 19.9614 9.56775 19.4091V13.3345C9.56775 13.0627 9.67838 12.8026 9.87417 12.6141Z" fill="white"/>
<path d="M11.1679 13.4139L13.4006 11.2643C13.6329 11.0406 14.0005 11.0406 14.2328 11.2643L16.4655 13.4139C16.583 13.527 16.6494 13.683 16.6494 13.8461V18.4454C16.6494 18.7768 16.3808 19.0454 16.0494 19.0454H11.584C11.2526 19.0454 10.984 18.7768 10.984 18.4454V13.8461C10.984 13.683 11.0504 13.527 11.1679 13.4139Z" fill="#F77844"/>
<defs>
<filter id="filter0_d_1021_503" x="0.5" y="0.262547" width="27" height="34.234" filterUnits="userSpaceOnUse" color-interpolation-filters="sRGB">
<feFlood flood-opacity="0" result="BackgroundImageFix"/>
<feColorMatrix in="SourceAlpha" type="matrix" values="0 0 0 0 0 0 0 0 0 0 0 0 0 0 0 0 0 0 127 0" result="hardAlpha"/>
<feOffset/>
<feGaussianBlur stdDeviation="1.5"/>
<feComposite in2="hardAlpha" operator="out"/>
<feColorMatrix type="matrix" values="0 0 0 0 0 0 0 0 0 0 0 0 0 0 0 0 0 0 0.25 0"/>
<feBlend mode="normal" in2="BackgroundImageFix" result="effect1_dropShadow_1021_503"/>
<feBlend mode="normal" in="SourceGraphic" in2="effect1_dropShadow_1021_503" result="shape"/>
</filter>
</defs>
</svg>
