<svg width="39" height="51" viewBox="0 0 39 51" fill="none" xmlns="http://www.w3.org/2000/svg">
<g filter="url(#filter0_d_1021_503)">
<path d="M4.08194 21.2955C4.78597 29.8965 14.4268 41.9603 18.1561 46.3339C18.9266 47.2376 20.2898 47.2274 21.0473 46.3128C24.6849 41.9217 34.0663 29.8827 35.1472 21.2955C35.9751 14.718 34.0117 10.9757 29.8451 7.57449C24.054 2.84724 15.2269 2.95631 9.52864 7.79506C5.59142 11.1384 3.55515 14.8599 4.08194 21.2955Z" fill="#E44B0C"/>
<path d="M4.08194 21.2955C4.78597 29.8965 14.4268 41.9603 18.1561 46.3339C18.9266 47.2376 20.2898 47.2274 21.0473 46.3128C24.6849 41.9217 34.0663 29.8827 35.1472 21.2955C35.9751 14.718 34.0117 10.9757 29.8451 7.57449C24.054 2.84724 15.2269 2.95631 9.52864 7.79506C5.59142 11.1384 3.55515 14.8599 4.08194 21.2955Z" stroke="white"/>
</g>
<path d="M13.0292 17.7959L18.686 12.3496C19.0733 11.9768 19.686 11.9768 20.0732 12.3496L25.73 17.7959C25.9258 17.9844 26.0364 18.2445 26.0364 18.5163V28.8409C26.0364 29.3932 25.5887 29.8409 25.0364 29.8409H13.7228C13.1705 29.8409 12.7228 29.3932 12.7228 28.8409V18.5163C12.7228 18.2445 12.8334 17.9844 13.0292 17.7959Z" fill="white"/>
<path d="M15.1255 18.9821L18.9634 15.287C19.1957 15.0633 19.5633 15.0633 19.7957 15.287L23.6336 18.9821C23.751 19.0952 23.8174 19.2512 23.8174 19.4143V27.1045C23.8174 27.4359 23.5488 27.7045 23.2174 27.7045H15.5417C15.2103 27.7045 14.9417 27.4359 14.9417 27.1045V19.4143C14.9417 19.2512 15.008 19.0952 15.1255 18.9821Z" fill="#E44B0C"/>
<defs>
<filter id="filter0_d_1021_503" x="0.5" y="0.596455" width="38.3334" height="49.9088" filterUnits="userSpaceOnUse" color-interpolation-filters="sRGB">
<feFlood flood-opacity="0" result="BackgroundImageFix"/>
<feColorMatrix in="SourceAlpha" type="matrix" values="0 0 0 0 0 0 0 0 0 0 0 0 0 0 0 0 0 0 127 0" result="hardAlpha"/>
<feOffset/>
<feGaussianBlur stdDeviation="1.5"/>
<feComposite in2="hardAlpha" operator="out"/>
<feColorMatrix type="matrix" values="0 0 0 0 0 0 0 0 0 0 0 0 0 0 0 0 0 0 0.25 0"/>
<feBlend mode="normal" in2="BackgroundImageFix" result="effect1_dropShadow_1021_503"/>
<feBlend mode="normal" in="SourceGraphic" in2="effect1_dropShadow_1021_503" result="shape"/>
</filter>
</defs>
</svg>
